<?xml version="1.0" standalone="no"?>
<!DOCTYPE svg PUBLIC "-//W3C//DTD SVG 20010904//EN"
 "http://www.w3.org/TR/2001/REC-SVG-20010904/DTD/svg10.dtd">
<svg version="1.0" xmlns="http://www.w3.org/2000/svg"
 width="170.000000pt" height="170.000000pt" viewBox="0 0 170.000000 170.000000"
 preserveAspectRatio="xMidYMid meet">
<metadata>
Created by potrace 1.14, written by Peter Selinger 2001-2017
</metadata>
<g transform="translate(0.000000,170.000000) scale(0.100000,-0.100000)"
fill="#000000" stroke="none">
<path d="M1080 1195 c-64 -173 -176 -443 -181 -437 -3 4 -39 103 -80 219 l-74
213 -68 0 -67 0 13 -32 c8 -18 69 -176 137 -351 117 -300 124 -317 137 -293 7
14 52 114 99 223 47 109 89 201 93 206 4 4 52 -94 106 -218 54 -124 101 -225
105 -225 6 0 270 670 270 685 0 3 -29 5 -64 5 l-63 0 -73 -207 c-39 -115 -75
-214 -79 -221 -4 -7 -44 81 -96 210 -109 276 -101 260 -115 223z"/>
<path d="M263 1179 c-57 -28 -87 -78 -87 -146 0 -86 38 -122 217 -204 81 -36
107 -71 107 -140 0 -55 -26 -94 -76 -115 -46 -19 -81 -17 -132 7 -39 19 -90
79 -105 122 -2 6 -11 6 -24 -2 -20 -10 -21 -15 -11 -43 18 -50 98 -125 149
-138 142 -39 270 57 257 191 -8 78 -44 122 -135 164 -126 58 -147 71 -170 105
-59 86 10 182 119 167 47 -6 84 -30 113 -74 18 -25 24 -28 43 -20 28 13 28 16
-7 64 -57 78 -170 106 -258 62z"/>
</g>
</svg>
